<?xml version="1.0" encoding="UTF-8" standalone="no"?><!DOCTYPE svg PUBLIC "-//W3C//DTD SVG 1.1//EN" "http://www.w3.org/Graphics/SVG/1.1/DTD/svg11.dtd"><svg width="100%" height="100%" viewBox="0 0 300 300" version="1.1" xmlns="http://www.w3.org/2000/svg" xmlns:xlink="http://www.w3.org/1999/xlink" xml:space="preserve" style="fill-rule:evenodd;clip-rule:evenodd;stroke-linejoin:round;stroke-miterlimit:1.41421;"><path d="M50.535,252.184c0.417,0.417 0.726,0.85 0.925,1.298c0.2,0.448 0.304,0.894 0.313,1.338c0.009,0.444 -0.073,0.872 -0.246,1.285c-0.173,0.413 -0.424,0.784 -0.752,1.112c-0.48,0.479 -1.023,0.819 -1.631,1.019c-0.609,0.199 -1.205,0.255 -1.791,0.166l-0.08,-1.225c0.497,0.089 0.981,0.058 1.451,-0.093c0.471,-0.151 0.866,-0.386 1.185,-0.706c0.426,-0.426 0.633,-0.934 0.619,-1.524c-0.013,-0.591 -0.299,-1.165 -0.858,-1.725c-0.267,-0.266 -0.546,-0.457 -0.839,-0.572c-0.293,-0.116 -0.595,-0.178 -0.906,-0.187c-0.31,-0.009 -0.623,0.02 -0.939,0.087c-0.315,0.066 -0.632,0.153 -0.952,0.26c-0.381,0.133 -0.765,0.237 -1.151,0.312c-0.386,0.076 -0.768,0.098 -1.145,0.067c-0.378,-0.031 -0.759,-0.133 -1.146,-0.306c-0.386,-0.173 -0.765,-0.446 -1.138,-0.819c-0.435,-0.435 -0.748,-0.881 -0.939,-1.338c-0.191,-0.457 -0.282,-0.908 -0.273,-1.352c0.009,-0.444 0.102,-0.861 0.28,-1.251c0.177,-0.391 0.422,-0.742 0.732,-1.052c0.426,-0.426 0.884,-0.737 1.372,-0.932c0.488,-0.196 1.003,-0.253 1.544,-0.174l0.08,1.225c-0.435,-0.079 -0.828,-0.055 -1.178,0.074c-0.351,0.128 -0.668,0.335 -0.952,0.619c-0.187,0.186 -0.338,0.404 -0.453,0.652c-0.115,0.249 -0.173,0.515 -0.173,0.799c0,0.284 0.067,0.582 0.2,0.892c0.133,0.311 0.35,0.617 0.652,0.919c0.266,0.266 0.537,0.457 0.812,0.573c0.276,0.115 0.557,0.179 0.846,0.193c0.288,0.013 0.581,-0.014 0.879,-0.08c0.297,-0.067 0.592,-0.149 0.885,-0.246c0.373,-0.125 0.761,-0.229 1.165,-0.313c0.404,-0.085 0.81,-0.118 1.219,-0.1c0.408,0.017 0.812,0.111 1.211,0.279c0.4,0.169 0.79,0.444 1.172,0.826Z" style="fill-opacity:0.15;fill-rule:nonzero;"/><path d="M65.262,235.673c0.488,0.488 0.901,0.994 1.238,1.518c0.337,0.524 0.561,1.05 0.672,1.578c0.111,0.528 0.085,1.056 -0.079,1.584c-0.165,0.528 -0.5,1.046 -1.006,1.552c-0.506,0.505 -1.021,0.838 -1.544,0.998c-0.524,0.16 -1.05,0.184 -1.578,0.073c-0.528,-0.111 -1.052,-0.337 -1.571,-0.679c-0.52,-0.341 -1.023,-0.756 -1.512,-1.245l-6.125,-6.125l0.932,-0.932l6.006,6.005c0.346,0.347 0.712,0.664 1.098,0.952c0.386,0.289 0.775,0.5 1.165,0.633c0.391,0.133 0.779,0.166 1.165,0.1c0.386,-0.067 0.761,-0.282 1.125,-0.646c0.355,-0.355 0.568,-0.728 0.639,-1.118c0.072,-0.391 0.04,-0.782 -0.093,-1.172c-0.133,-0.391 -0.341,-0.777 -0.626,-1.159c-0.284,-0.381 -0.603,-0.75 -0.958,-1.105l-6.005,-6.005l0.932,-0.932l6.125,6.125Z" style="fill-opacity:0.15;fill-rule:nonzero;"/><path d="M77.019,216.779c0.435,0.435 0.755,0.883 0.959,1.344c0.204,0.462 0.31,0.91 0.319,1.345c0.009,0.435 -0.068,0.85 -0.233,1.245c-0.164,0.395 -0.397,0.744 -0.699,1.046l-1.385,1.384l4.208,4.208l-0.919,0.919l-9.427,-9.428l2.224,-2.223c0.275,-0.275 0.595,-0.515 0.958,-0.719c0.364,-0.204 0.762,-0.322 1.192,-0.353c0.431,-0.031 0.883,0.044 1.358,0.226c0.475,0.182 0.957,0.517 1.445,1.006Zm-0.905,0.932c-0.311,-0.311 -0.62,-0.54 -0.926,-0.686c-0.306,-0.147 -0.601,-0.22 -0.885,-0.22c-0.284,0 -0.551,0.058 -0.799,0.173c-0.249,0.116 -0.48,0.28 -0.693,0.493l-1.251,1.252l3.635,3.635l1.265,-1.265c0.417,-0.417 0.621,-0.928 0.612,-1.531c-0.009,-0.604 -0.328,-1.221 -0.958,-1.851Z" style="fill-opacity:0.15;fill-rule:nonzero;"/><path d="M94.049,213.49l-9.427,-9.427l3.795,-3.795l0.825,0.825l-2.889,2.89l3.316,3.315l2.703,-2.703l0.785,0.786l-2.703,2.703l3.662,3.661l3.022,-3.022l0.839,0.839l-3.928,3.928Z" style="fill-opacity:0.15;fill-rule:nonzero;"/><path d="M112.105,195.434l-6.072,-2.663l-1.212,1.212l4.368,4.367l-0.919,0.919l-9.427,-9.427l2.263,-2.264c0.311,-0.31 0.653,-0.568 1.026,-0.772c0.372,-0.204 0.77,-0.322 1.191,-0.353c0.422,-0.031 0.861,0.044 1.319,0.226c0.457,0.182 0.916,0.504 1.378,0.966c0.399,0.399 0.692,0.794 0.879,1.185c0.186,0.39 0.295,0.766 0.326,1.125c0.031,0.36 0,0.692 -0.093,0.999c-0.094,0.306 -0.225,0.57 -0.393,0.792l6.364,2.69l-0.998,0.998Zm-6.951,-6.844c-0.337,-0.337 -0.666,-0.572 -0.985,-0.705c-0.32,-0.134 -0.624,-0.189 -0.912,-0.167c-0.289,0.022 -0.559,0.107 -0.812,0.253c-0.253,0.147 -0.486,0.326 -0.7,0.539l-1.198,1.199l3.542,3.542l1.238,-1.239c0.506,-0.506 0.746,-1.061 0.719,-1.664c-0.026,-0.604 -0.324,-1.19 -0.892,-1.758Z" style="fill-opacity:0.15;fill-rule:nonzero;"/><path d="M125.234,175.701c0.488,0.488 0.901,0.994 1.238,1.518c0.337,0.524 0.561,1.05 0.672,1.578c0.111,0.528 0.085,1.056 -0.08,1.584c-0.164,0.529 -0.499,1.046 -1.005,1.552c-0.506,0.506 -1.021,0.838 -1.544,0.998c-0.524,0.16 -1.05,0.184 -1.578,0.073c-0.528,-0.111 -1.052,-0.337 -1.571,-0.679c-0.52,-0.341 -1.024,-0.756 -1.512,-1.245l-6.125,-6.125l0.932,-0.932l6.005,6.005c0.347,0.347 0.713,0.664 1.099,0.953c0.386,0.288 0.774,0.499 1.165,0.632c0.391,0.133 0.779,0.166 1.165,0.1c0.386,-0.067 0.761,-0.282 1.125,-0.646c0.355,-0.355 0.568,-0.728 0.639,-1.118c0.071,-0.391 0.04,-0.782 -0.093,-1.172c-0.133,-0.391 -0.342,-0.777 -0.626,-1.159c-0.284,-0.381 -0.603,-0.75 -0.958,-1.105l-6.005,-6.005l0.932,-0.932l6.125,6.125Z" style="fill-opacity:0.15;fill-rule:nonzero;"/><path d="M140.919,161.8c0.417,0.417 0.726,0.85 0.925,1.298c0.2,0.448 0.304,0.894 0.313,1.338c0.009,0.444 -0.073,0.872 -0.246,1.285c-0.173,0.413 -0.424,0.784 -0.752,1.112c-0.48,0.479 -1.023,0.819 -1.631,1.019c-0.609,0.199 -1.205,0.255 -1.791,0.166l-0.08,-1.225c0.497,0.089 0.981,0.058 1.451,-0.093c0.471,-0.151 0.866,-0.386 1.185,-0.706c0.426,-0.426 0.633,-0.934 0.619,-1.524c-0.013,-0.591 -0.299,-1.165 -0.858,-1.725c-0.267,-0.266 -0.546,-0.457 -0.839,-0.572c-0.293,-0.116 -0.595,-0.178 -0.906,-0.187c-0.31,-0.009 -0.623,0.02 -0.939,0.087c-0.315,0.066 -0.632,0.153 -0.952,0.26c-0.381,0.133 -0.765,0.237 -1.151,0.312c-0.386,0.076 -0.768,0.098 -1.145,0.067c-0.378,-0.031 -0.759,-0.133 -1.146,-0.306c-0.386,-0.173 -0.765,-0.446 -1.138,-0.819c-0.435,-0.435 -0.748,-0.881 -0.939,-1.338c-0.191,-0.457 -0.282,-0.908 -0.273,-1.352c0.009,-0.444 0.102,-0.861 0.28,-1.251c0.177,-0.391 0.422,-0.742 0.732,-1.052c0.426,-0.426 0.884,-0.737 1.372,-0.932c0.488,-0.196 1.003,-0.253 1.544,-0.174l0.08,1.225c-0.435,-0.079 -0.828,-0.055 -1.178,0.074c-0.351,0.128 -0.668,0.335 -0.952,0.619c-0.187,0.186 -0.338,0.404 -0.453,0.652c-0.115,0.249 -0.173,0.515 -0.173,0.799c0,0.284 0.067,0.582 0.2,0.892c0.133,0.311 0.35,0.617 0.652,0.919c0.266,0.266 0.537,0.457 0.812,0.573c0.276,0.115 0.557,0.179 0.846,0.193c0.288,0.013 0.581,-0.014 0.879,-0.08c0.297,-0.067 0.592,-0.149 0.885,-0.246c0.373,-0.125 0.761,-0.229 1.165,-0.313c0.404,-0.085 0.81,-0.118 1.219,-0.1c0.408,0.017 0.812,0.111 1.211,0.279c0.4,0.169 0.79,0.444 1.172,0.826Z" style="fill-opacity:0.15;fill-rule:nonzero;"/><path d="M153.675,153.864l-9.427,-9.427l3.795,-3.795l0.825,0.826l-2.889,2.889l3.315,3.315l2.703,-2.703l0.786,0.786l-2.703,2.703l3.662,3.662l3.022,-3.023l0.839,0.839l-3.928,3.928Z" style="fill-opacity:0.15;fill-rule:nonzero;"/><path d="M171.731,135.809l-6.072,-2.664l-1.212,1.212l4.367,4.368l-0.918,0.918l-9.427,-9.427l2.263,-2.263c0.311,-0.311 0.653,-0.569 1.025,-0.773c0.373,-0.204 0.77,-0.322 1.192,-0.353c0.422,-0.031 0.861,0.045 1.318,0.227c0.457,0.182 0.917,0.503 1.378,0.965c0.4,0.4 0.693,0.795 0.879,1.185c0.187,0.391 0.295,0.766 0.326,1.125c0.032,0.36 0,0.693 -0.093,0.999c-0.093,0.306 -0.224,0.57 -0.393,0.792l6.365,2.69l-0.998,0.999Zm-6.951,-6.845c-0.337,-0.337 -0.666,-0.572 -0.985,-0.705c-0.32,-0.133 -0.624,-0.189 -0.912,-0.167c-0.289,0.023 -0.56,0.107 -0.813,0.253c-0.253,0.147 -0.486,0.327 -0.699,0.54l-1.198,1.198l3.542,3.542l1.238,-1.239c0.506,-0.505 0.746,-1.06 0.719,-1.664c-0.027,-0.604 -0.324,-1.189 -0.892,-1.758Z" style="fill-opacity:0.15;fill-rule:nonzero;"/><path d="M200.438,107.101l-8.189,-8.189l-0.04,0.04l5.872,10.506l-0.865,0.865l-10.493,-5.885l-0.039,0.04l8.188,8.189l-0.865,0.865l-9.427,-9.427l1.385,-1.385l10.212,5.712l0.054,-0.053l-5.739,-10.186l1.438,-1.438l9.427,9.427l-0.919,0.919Z" style="fill-opacity:0.15;fill-rule:nonzero;"/><path d="M213.274,84.811c0.737,0.737 1.338,1.48 1.804,2.23c0.466,0.75 0.784,1.476 0.952,2.177c0.169,0.702 0.182,1.363 0.04,1.984c-0.142,0.622 -0.457,1.177 -0.945,1.665c-0.488,0.488 -1.045,0.805 -1.671,0.952c-0.626,0.146 -1.292,0.137 -1.997,-0.027c-0.706,-0.164 -1.434,-0.479 -2.184,-0.945c-0.75,-0.466 -1.494,-1.068 -2.23,-1.804c-0.728,-0.728 -1.328,-1.465 -1.798,-2.211c-0.47,-0.745 -0.788,-1.467 -0.952,-2.163c-0.164,-0.697 -0.173,-1.359 -0.027,-1.984c0.147,-0.626 0.473,-1.192 0.979,-1.698c0.488,-0.488 1.043,-0.803 1.664,-0.946c0.622,-0.142 1.281,-0.13 1.978,0.034c0.697,0.164 1.42,0.479 2.17,0.945c0.75,0.466 1.489,1.063 2.217,1.791Zm-0.972,0.972c-0.568,-0.568 -1.145,-1.056 -1.731,-1.465c-0.586,-0.408 -1.152,-0.703 -1.698,-0.885c-0.546,-0.182 -1.058,-0.246 -1.537,-0.193c-0.48,0.053 -0.893,0.253 -1.239,0.599c-0.364,0.364 -0.575,0.788 -0.632,1.272c-0.058,0.483 0.006,0.996 0.193,1.538c0.186,0.541 0.484,1.105 0.892,1.691c0.408,0.585 0.896,1.162 1.465,1.731c0.568,0.568 1.145,1.056 1.731,1.464c0.585,0.409 1.154,0.71 1.704,0.906c0.55,0.195 1.067,0.264 1.551,0.206c0.484,-0.058 0.908,-0.268 1.272,-0.632c0.355,-0.355 0.559,-0.773 0.612,-1.252c0.054,-0.479 -0.017,-0.994 -0.213,-1.545c-0.195,-0.55 -0.497,-1.118 -0.905,-1.704c-0.409,-0.586 -0.897,-1.163 -1.465,-1.731Z" style="fill-opacity:0.15;fill-rule:nonzero;"/><path d="M229.159,68.979c0.773,0.773 1.372,1.531 1.798,2.277c0.426,0.746 0.686,1.467 0.779,2.164c0.093,0.697 0.029,1.356 -0.193,1.977c-0.222,0.622 -0.591,1.19 -1.106,1.705l-2.023,2.023l-9.428,-9.427l2.038,-2.037c0.514,-0.515 1.083,-0.883 1.704,-1.105c0.621,-0.222 1.28,-0.282 1.977,-0.18c0.697,0.102 1.421,0.368 2.171,0.799c0.75,0.431 1.511,1.032 2.283,1.804Zm-0.919,0.919c-0.665,-0.666 -1.309,-1.181 -1.93,-1.545c-0.622,-0.364 -1.205,-0.592 -1.751,-0.685c-0.546,-0.094 -1.052,-0.067 -1.518,0.08c-0.466,0.146 -0.877,0.397 -1.232,0.752l-1.092,1.092l7.803,7.802l1.092,-1.091c0.355,-0.355 0.606,-0.766 0.752,-1.232c0.147,-0.466 0.173,-0.972 0.08,-1.518c-0.093,-0.546 -0.319,-1.127 -0.679,-1.744c-0.359,-0.617 -0.868,-1.254 -1.525,-1.911Z" style="fill-opacity:0.15;fill-rule:nonzero;"/><path d="M244.272,63.267l-9.427,-9.427l3.795,-3.795l0.825,0.825l-2.889,2.89l3.315,3.315l2.703,-2.703l0.786,0.786l-2.703,2.703l3.662,3.662l3.022,-3.023l0.839,0.839l-3.928,3.928Z" style="fill-opacity:0.15;fill-rule:nonzero;"/></svg>
