<?xml version="1.0" encoding="UTF-8" standalone="no"?><!DOCTYPE svg PUBLIC "-//W3C//DTD SVG 1.1//EN" "http://www.w3.org/Graphics/SVG/1.1/DTD/svg11.dtd">
<svg width="129.239990234375px" height="63.239990234375px" 
xmlns="http://www.w3.org/2000/svg" 
viewBox="-10 -22 20 60" style="background: rgba(0, 0, 0, 0) none repeat scroll 0% 0%;" preserveAspectRatio="xMidYMid">
<defs><filter id="editing-hole" x="-100%" y="-100%" width="300%" height="300%"><feFlood flood-color="#000" result="black"></feFlood>
<feMorphology operator="dilate" radius="2" in="SourceGraphic" result="erode"></feMorphology><feGaussianBlur in="erode" stdDeviation="4" result="blur"></feGaussianBlur>
<feOffset in="blur" dx="2" dy="2" result="offset"></feOffset><feComposite operator="atop" in="offset" in2="black" result="merge"></feComposite>
<feComposite operator="in" in="merge" in2="SourceGraphic" result="inner-shadow"></feComposite></filter></defs>

<g filter="url(#editing-hole)"><g transform="translate(0, 0)"><path d="M0.37-10.74L0.37-10.74L0.37-10.74Q0.37-11.37 0.85-11.83L0.85-11.83L0.85-11.83Q1.33-12.29 2.01-12.57L2.01-12.57L2.01-12.57Q2.70-12.85 3.44-13.00L3.44-13.00L3.44-13.00Q4.18-13.14 4.71-13.14L4.71-13.14L4.71-13.14Q5.23-13.14 5.77-12.97L5.77-12.97L5.77-12.97Q6.31-12.79 6.72-12.47L6.72-12.47L6.72-12.47Q7.13-12.15 7.35-11.65L7.35-11.65L7.35-11.65Q7.58-11.15 7.50-10.51L7.50-10.51L7.50-10.51Q7.40-9.51 6.85-8.75L6.85-8.75L6.85-8.75Q6.29-7.99 5.48-7.47L5.48-7.47L5.48-7.47Q4.67-6.95 3.72-6.69L3.72-6.69L3.72-6.69Q2.77-6.43 1.89-6.43L1.89-6.43L1.89-6.43Q1.89-5.70 1.95-4.99L1.95-4.99L1.95-4.99Q2.01-4.28 2.08-3.55L2.08-3.55L2.08-3.55Q2.15-2.83 2.21-2.12L2.21-2.12L2.21-2.12Q2.27-1.41 2.27-0.68L2.27-0.68L2.27-0.68Q2.27-0.47 2.23-0.28L2.23-0.28L2.23-0.28Q2.19-0.10 1.88 0L1.88 0L1.48-0.37L1.48-0.37Q1.48-0.39 1.43-0.92L1.43-0.92L1.43-0.92Q1.37-1.45 1.26-2.29L1.26-2.29L1.26-2.29Q1.15-3.13 1.03-4.19L1.03-4.19L1.03-4.19Q0.90-5.25 0.78-6.33L0.78-6.33L0.78-6.33Q0.66-7.40 0.56-8.40L0.56-8.40L0.56-8.40Q0.45-9.39 0.37-10.12L0.37-10.12L0.37-10.12Q0.37-10.14 0.37-10.21L0.37-10.21L0.37-10.21Q0.37-10.29 0.37-10.39L0.37-10.39L0.37-10.39Q0.37-10.49 0.37-10.59L0.37-10.59L0.37-10.59Q0.37-10.68 0.37-10.74ZM1.46-10.04L1.46-10.04L1.46-10.04Q1.46-9.63 1.47-9.28L1.47-9.28L1.47-9.28Q1.48-8.93 1.53-8.59L1.53-8.59L1.53-8.59Q1.58-8.26 1.66-7.91L1.66-7.91L1.66-7.91Q1.74-7.56 1.88-7.11L1.88-7.11L1.88-7.11Q2.48-7.21 3.32-7.48L3.32-7.48L3.32-7.48Q4.16-7.75 4.93-8.22L4.93-8.22L4.93-8.22Q5.70-8.69 6.23-9.31L6.23-9.31L6.23-9.31Q6.76-9.92 6.76-10.68L6.76-10.68L6.76-10.68Q6.76-11.09 6.56-11.42L6.56-11.42L6.56-11.42Q6.37-11.74 6.06-11.95L6.06-11.95L6.06-11.95Q5.76-12.17 5.39-12.29L5.39-12.29L5.39-12.29Q5.02-12.40 4.67-12.40L4.67-12.40L4.67-12.40Q4.10-12.40 3.53-12.27L3.53-12.27L3.53-12.27Q2.95-12.13 2.49-11.84L2.49-11.84L2.49-11.84Q2.03-11.54 1.75-11.09L1.75-11.09L1.75-11.09Q1.46-10.64 1.46-10.04ZM16.62 0.04L15.88 0.04L15.88 0.04Q15.80-0.31 15.68-0.89L15.68-0.89L15.68-0.89Q15.57-1.46 15.38-2.14L15.38-2.14L15.38-2.14Q15.20-2.81 14.93-3.50L14.93-3.50L14.93-3.50Q14.67-4.18 14.30-4.74L14.30-4.74L14.30-4.74Q13.93-5.29 13.45-5.64L13.45-5.64L13.45-5.64Q12.97-6.00 12.32-6.00L12.32-6.00L12.32-6.00Q12.07-6.00 11.66-5.96L11.66-5.96L11.66-5.96Q11.25-5.92 10.86-5.83L10.86-5.83L10.86-5.83Q10.47-5.74 10.18-5.59L10.18-5.59L10.18-5.59Q9.88-5.43 9.88-5.21L9.88-5.21L9.88-0.25L9.88-0.25Q9.80-0.25 9.65-0.29L9.65-0.29L9.65-0.29Q9.49-0.33 9.34-0.40L9.34-0.40L9.34-0.40Q9.18-0.47 9.06-0.55L9.06-0.55L9.06-0.55Q8.95-0.63 8.95-0.72L8.95-0.72L8.95-10.47L8.95-10.47Q8.71-10.43 8.54-10.26L8.54-10.26L8.54-10.26Q8.36-10.10 8.25-9.86L8.25-9.86L8.25-9.86Q8.14-9.63 8.09-9.39L8.09-9.39L8.09-9.39Q8.03-9.16 8.01-8.96L8.01-8.96L8.01-8.96Q7.93-8.96 7.79-9.05L7.79-9.05L7.79-9.05Q7.66-9.14 7.54-9.26L7.54-9.26L7.54-9.26Q7.42-9.38 7.33-9.50L7.33-9.50L7.33-9.50Q7.25-9.63 7.25-9.73L7.25-9.73L7.25-9.73Q7.25-10.21 7.54-10.67L7.54-10.67L7.54-10.67Q7.83-11.13 8.30-11.51L8.30-11.51L8.30-11.51Q8.77-11.89 9.35-12.20L9.35-12.20L9.35-12.20Q9.92-12.50 10.51-12.71L10.51-12.71L10.51-12.71Q11.09-12.93 11.62-13.05L11.62-13.05L11.62-13.05Q12.15-13.16 12.52-13.16L12.52-13.16L12.52-13.16Q13.07-13.16 13.55-13.13L13.55-13.13L13.55-13.13Q14.04-13.09 14.40-12.90L14.40-12.90L14.40-12.90Q14.77-12.71 14.98-12.32L14.98-12.32L14.98-12.32Q15.20-11.93 15.20-11.27L15.20-11.27L15.20-11.27Q15.20-10.66 14.98-10.09L14.98-10.09L14.98-10.09Q14.77-9.51 14.43-8.98L14.43-8.98L14.43-8.98Q14.10-8.46 13.69-7.98L13.69-7.98L13.69-7.98Q13.28-7.50 12.87-7.09L12.87-7.09L12.87-7.09Q13.79-6.52 14.36-5.95L14.36-5.95L14.36-5.95Q14.92-5.37 15.27-4.79L15.27-4.79L15.27-4.79Q15.63-4.22 15.81-3.64L15.81-3.64L15.81-3.64Q16.00-3.07 16.10-2.46L16.10-2.46L16.10-2.46Q16.21-1.86 16.32-1.23L16.32-1.23L16.32-1.23Q16.43-0.61 16.62 0.04L16.62 0.04ZM12.60-12.38L12.60-12.38L12.60-12.38Q12.46-12.38 12.22-12.37L12.22-12.37L12.22-12.37Q11.97-12.36 11.66-12.32L11.66-12.32L11.66-12.32Q11.35-12.29 11.04-12.21L11.04-12.21L11.04-12.21Q10.74-12.13 10.48-11.99L10.48-11.99L10.48-11.99Q10.21-11.86 10.05-11.67L10.05-11.67L10.05-11.67Q9.88-11.48 9.88-11.21L9.88-11.21L9.88-6.25L9.88-6.25Q10.35-6.25 10.86-6.48L10.86-6.48L10.86-6.48Q11.37-6.72 11.87-7.12L11.87-7.12L11.87-7.12Q12.36-7.52 12.83-8.02L12.83-8.02L12.83-8.02Q13.30-8.52 13.65-9.04L13.65-9.04L13.65-9.04Q14.00-9.57 14.22-10.10L14.22-10.10L14.22-10.10Q14.43-10.63 14.43-11.04L14.43-11.04L14.43-11.04Q14.43-11.48 14.29-11.75L14.29-11.75L14.29-11.75Q14.14-12.01 13.89-12.16L13.89-12.16L13.89-12.16Q13.63-12.30 13.30-12.34L13.30-12.34L13.30-12.34Q12.97-12.38 12.60-12.38ZM17.97-10.51L17.97-10.51L17.97-10.51Q18.28-10.96 18.80-11.28L18.80-11.28L18.80-11.28Q19.32-11.60 19.95-11.82L19.95-11.82L19.95-11.82Q20.59-12.03 21.32-12.15L21.32-12.15L21.32-12.15Q22.05-12.27 22.75-12.32L22.75-12.32L22.75-12.32Q23.46-12.38 24.12-12.40L24.12-12.40L24.12-12.40Q24.79-12.42 25.29-12.42L25.29-12.42L25.29-12.42Q25.33-12.42 25.47-12.41L25.47-12.41L25.47-12.41Q25.61-12.40 25.76-12.39L25.76-12.39L25.76-12.39Q25.92-12.38 26.04-12.38L26.04-12.38L26.04-12.38Q26.17-12.38 26.23-12.38L26.23-12.38L26.23-12.38Q26.31-11.95 26.14-11.79L26.14-11.79L26.14-11.79Q25.98-11.62 25.71-11.59L25.71-11.59L25.71-11.59Q25.45-11.56 25.16-11.61L25.16-11.61L25.16-11.61Q24.86-11.66 24.73-11.62L24.73-11.62L24.73-11.62Q24.53-11.60 24.11-11.51L24.11-11.51L24.11-11.51Q23.69-11.43 23.18-11.32L23.18-11.32L23.18-11.32Q22.68-11.21 22.10-11.08L22.10-11.08L22.10-11.08Q21.52-10.96 21.01-10.85L21.01-10.85L21.01-10.85Q20.49-10.74 20.08-10.64L20.08-10.64L20.08-10.64Q19.67-10.55 19.47-10.51L19.47-10.51L19.47-10.51Q19.16-10.39 19.12-10.21L19.12-10.21L19.12-10.21Q19.08-10.04 19.08-9.80L19.08-9.80L19.08-9.80Q19.08-9.39 19.13-8.89L19.13-8.89L19.13-8.89Q19.18-8.38 19.25-7.88L19.25-7.88L19.25-7.88Q19.32-7.38 19.38-6.97L19.38-6.97L19.38-6.97Q19.45-6.56 19.47-6.37L19.47-6.37L19.47-6.37Q19.55-6.35 19.77-6.35L19.77-6.35L19.77-6.35Q19.98-6.35 20.06-6.35L20.06-6.35L20.06-6.35Q20.51-6.35 20.94-6.43L20.94-6.43L20.94-6.43Q21.37-6.50 21.80-6.60L21.80-6.60L21.80-6.60Q22.23-6.70 22.68-6.77L22.68-6.77L22.68-6.77Q23.13-6.84 23.59-6.84L23.59-6.84L23.59-6.11L23.59-6.11Q23.40-6.11 23.05-6.08L23.05-6.08L23.05-6.08Q22.70-6.05 22.28-5.98L22.28-5.98L22.28-5.98Q21.86-5.90 21.43-5.81L21.43-5.81L21.43-5.81Q21.00-5.72 20.64-5.63L20.64-5.63L20.64-5.63Q20.29-5.53 20.07-5.43L20.07-5.43L20.07-5.43Q19.84-5.33 19.84-5.23L19.84-5.23L19.84-1.17L19.84-1.17Q20.76-1.17 21.67-1.23L21.67-1.23L21.67-1.23Q22.58-1.29 23.50-1.36L23.50-1.36L23.50-1.36Q24.41-1.43 25.33-1.48L25.33-1.48L25.33-1.48Q26.25-1.54 27.17-1.54L27.17-1.54L27.17-1.54Q27.17-1.31 27.01-1.16L27.01-1.16L27.01-1.16Q26.86-1.02 26.65-0.93L26.65-0.93L26.65-0.93Q26.45-0.84 26.21-0.80L26.21-0.80L26.21-0.80Q25.98-0.76 25.86-0.74L25.86-0.74L25.86-0.74Q25.78-0.72 25.37-0.68L25.37-0.68L25.37-0.68Q24.96-0.64 24.36-0.57L24.36-0.57L24.36-0.57Q23.75-0.49 23.01-0.41L23.01-0.41L23.01-0.41Q22.27-0.33 21.54-0.25L21.54-0.25L21.54-0.25Q20.82-0.18 20.18-0.11L20.18-0.11L20.18-0.11Q19.53-0.04 19.10 0L19.10 0L19.10 0Q19.04 0.02 18.93 0.02L18.93 0.02L18.93 0.02Q18.93-2.60 18.76-5.26L18.76-5.26L18.76-5.26Q18.59-7.93 17.97-10.51ZM34.84 0.12L27.81-12.73L28.40-13.32L34.67-2.25L36.82-13.87L37.44-13.87L35.31-0.37L34.84 0.12ZM38.14-13.50L38.14-13.73L38.14-13.73Q38.14-13.96 38.31-14.11L38.31-14.11L38.31-14.11Q38.48-14.26 38.71-14.26L38.71-14.26L38.71-14.26Q38.73-14.26 38.81-14.26L38.81-14.26L38.81-14.26Q38.89-14.26 38.91-14.26L38.91-14.26L38.91-14.26Q39.00-12.62 39.08-11.14L39.08-11.14L39.08-11.14Q39.16-9.67 39.21-8.24L39.21-8.24L39.21-8.24Q39.26-6.82 39.28-5.40L39.28-5.40L39.28-5.40Q39.30-3.98 39.30-2.44L39.30-2.44L39.30-2.44Q39.30-2.23 39.33-1.86L39.33-1.86L39.33-1.86Q39.36-1.48 39.38-1.13L39.38-1.13L39.38-1.13Q39.41-0.78 39.44-0.50L39.44-0.50L39.44-0.50Q39.47-0.21 39.47-0.20L39.47-0.20L38.63-0.04L38.63-0.04Q38.59-0.84 38.55-1.88L38.55-1.88L38.55-1.88Q38.52-2.93 38.49-4.11L38.49-4.11L38.49-4.11Q38.46-5.29 38.43-6.55L38.43-6.55L38.43-6.55Q38.40-7.81 38.35-9.04L38.35-9.04L38.35-9.04Q38.30-10.27 38.25-11.42L38.25-11.42L38.25-11.42Q38.20-12.56 38.14-13.50L38.14-13.50ZM40.10-10.51L40.10-10.51L40.10-10.51Q40.41-10.96 40.93-11.28L40.93-11.28L40.93-11.28Q41.45-11.60 42.08-11.82L42.08-11.82L42.08-11.82Q42.71-12.03 43.45-12.15L43.45-12.15L43.45-12.15Q44.18-12.27 44.88-12.32L44.88-12.32L44.88-12.32Q45.59-12.38 46.25-12.40L46.25-12.40L46.25-12.40Q46.91-12.42 47.42-12.42L47.42-12.42L47.42-12.42Q47.46-12.42 47.60-12.41L47.60-12.41L47.60-12.41Q47.73-12.40 47.89-12.39L47.89-12.39L47.89-12.39Q48.05-12.38 48.17-12.38L48.17-12.38L48.17-12.38Q48.30-12.38 48.36-12.38L48.36-12.38L48.36-12.38Q48.44-11.95 48.27-11.79L48.27-11.79L48.27-11.79Q48.11-11.62 47.84-11.59L47.84-11.59L47.84-11.59Q47.58-11.56 47.29-11.61L47.29-11.61L47.29-11.61Q46.99-11.66 46.86-11.62L46.86-11.62L46.86-11.62Q46.66-11.60 46.24-11.51L46.24-11.51L46.24-11.51Q45.82-11.43 45.31-11.32L45.31-11.32L45.31-11.32Q44.80-11.21 44.23-11.08L44.23-11.08L44.23-11.08Q43.65-10.96 43.13-10.85L43.13-10.85L43.13-10.85Q42.62-10.74 42.21-10.64L42.21-10.64L42.21-10.64Q41.80-10.55 41.60-10.51L41.60-10.51L41.60-10.51Q41.29-10.39 41.25-10.21L41.25-10.21L41.25-10.21Q41.21-10.04 41.21-9.80L41.21-9.80L41.21-9.80Q41.21-9.39 41.26-8.89L41.26-8.89L41.26-8.89Q41.31-8.38 41.38-7.88L41.38-7.88L41.38-7.88Q41.45-7.38 41.51-6.97L41.51-6.97L41.51-6.97Q41.58-6.56 41.60-6.37L41.60-6.37L41.60-6.37Q41.68-6.35 41.89-6.35L41.89-6.35L41.89-6.35Q42.11-6.35 42.19-6.35L42.19-6.35L42.19-6.35Q42.64-6.35 43.07-6.43L43.07-6.43L43.07-6.43Q43.50-6.50 43.93-6.60L43.93-6.60L43.93-6.60Q44.36-6.70 44.80-6.77L44.80-6.77L44.80-6.77Q45.25-6.84 45.72-6.84L45.72-6.84L45.72-6.11L45.72-6.11Q45.53-6.11 45.18-6.08L45.18-6.08L45.18-6.08Q44.82-6.05 44.40-5.98L44.40-5.98L44.40-5.98Q43.98-5.90 43.55-5.81L43.55-5.81L43.55-5.81Q43.13-5.72 42.77-5.63L42.77-5.63L42.77-5.63Q42.42-5.53 42.20-5.43L42.20-5.43L42.20-5.43Q41.97-5.33 41.97-5.23L41.97-5.23L41.97-1.17L41.97-1.17Q42.89-1.17 43.80-1.23L43.80-1.23L43.80-1.23Q44.71-1.29 45.63-1.36L45.63-1.36L45.63-1.36Q46.54-1.43 47.46-1.48L47.46-1.48L47.46-1.48Q48.38-1.54 49.30-1.54L49.30-1.54L49.30-1.54Q49.30-1.31 49.14-1.16L49.14-1.16L49.14-1.16Q48.98-1.02 48.78-0.93L48.78-0.93L48.78-0.93Q48.57-0.84 48.34-0.80L48.34-0.80L48.34-0.80Q48.11-0.76 47.99-0.74L47.99-0.74L47.99-0.74Q47.91-0.72 47.50-0.68L47.50-0.68L47.50-0.68Q47.09-0.64 46.48-0.57L46.48-0.57L46.48-0.57Q45.88-0.49 45.14-0.41L45.14-0.41L45.14-0.41Q44.39-0.33 43.67-0.25L43.67-0.25L43.67-0.25Q42.95-0.18 42.30-0.11L42.30-0.11L42.30-0.11Q41.66-0.04 41.23 0L41.23 0L41.23 0Q41.17 0.02 41.05 0.02L41.05 0.02L41.05 0.02Q41.05-2.60 40.89-5.26L40.89-5.26L40.89-5.26Q40.72-7.93 40.10-10.51ZM55.39-7.03L55.39-7.03L55.39-7.03Q55.33-6.82 55.21-6.35L55.21-6.35L55.21-6.35Q55.08-5.88 54.91-5.29L54.91-5.29L54.91-5.29Q54.75-4.71 54.56-4.06L54.56-4.06L54.56-4.06Q54.38-3.42 54.20-2.83L54.20-2.83L54.20-2.83Q54.02-2.25 53.89-1.79L53.89-1.79L53.89-1.79Q53.75-1.33 53.69-1.13L53.69-1.13L53.69-1.13Q53.65-0.94 53.57-0.71L53.57-0.71L53.57-0.71Q53.50-0.49 53.40-0.37L53.40-0.37L53.40-0.37Q53.30-0.25 53.18-0.31L53.18-0.31L53.18-0.31Q53.07-0.37 52.95-0.74L52.95-0.74L49.94-14.26L49.94-14.26Q50-14.26 50.14-14.29L50.14-14.29L50.14-14.29Q50.27-14.32 50.33-14.32L50.33-14.32L50.33-14.32Q50.72-14.32 50.85-14.15L50.85-14.15L50.85-14.15Q50.98-13.98 51.07-13.50L51.07-13.50L53.32-3.36L54.82-8.24L54.82-8.24Q54.90-8.48 55.05-8.55L55.05-8.55L55.05-8.55Q55.20-8.63 55.39-8.63L55.39-8.63L55.39-8.63Q55.55-8.48 55.84-8.06L55.84-8.06L55.84-8.06Q56.13-7.64 56.47-7.08L56.47-7.08L56.47-7.08Q56.82-6.52 57.19-5.89L57.19-5.89L57.19-5.89Q57.56-5.25 57.90-4.69L57.90-4.69L57.90-4.69Q58.24-4.12 58.52-3.66L58.52-3.66L58.52-3.66Q58.79-3.20 58.95-3.01L58.95-3.01L58.95-3.01Q59.00-2.91 59.15-2.74L59.15-2.74L59.15-2.74Q59.30-2.58 59.47-2.40L59.47-2.40L59.47-2.40Q59.65-2.23 59.82-2.07L59.82-2.07L59.82-2.07Q60-1.91 60.08-1.88L60.08-1.88L60.08-1.88Q60.06-2.52 60.02-3.41L60.02-3.41L60.02-3.41Q59.98-4.30 59.94-5.33L59.94-5.33L59.94-5.33Q59.90-6.37 59.89-7.49L59.89-7.49L59.89-7.49Q59.88-8.61 59.93-9.72L59.93-9.72L59.93-9.72Q59.98-10.82 60.10-11.85L60.10-11.85L60.10-11.85Q60.21-12.87 60.41-13.73L60.41-13.73L60.41-13.73Q60.45-13.87 60.52-13.94L60.52-13.94L60.52-13.94Q60.59-14.00 60.67-14.02L60.67-14.02L60.67-14.02Q60.76-14.04 60.91-14.03L60.91-14.03L60.91-14.03Q61.05-14.02 61.23-14.02L61.23-14.02L61.23-14.02Q61.23-13.81 61.21-13.51L61.21-13.51L61.21-13.51Q61.19-13.20 61.15-12.65L61.15-12.65L61.15-12.65Q61.11-12.09 61.07-11.15L61.07-11.15L61.07-11.15Q61.04-10.21 60.99-8.73L60.99-8.73L60.99-8.73Q60.94-7.25 60.90-5.11L60.90-5.11L60.90-5.11Q60.86-2.97 60.82 0L60.82 0L60.82 0Q59.98-0.66 59.26-1.48L59.26-1.48L59.26-1.48Q58.54-2.30 57.89-3.23L57.89-3.23L57.89-3.23Q57.25-4.16 56.63-5.13L56.63-5.13L56.63-5.13Q56.02-6.09 55.39-7.03ZM69.43-4.12L69.82-4.49L69.82-4.49Q69.82-4.51 70.26-4.58L70.26-4.58L70.26-4.58Q70.70-4.65 71.39-4.73L71.39-4.73L71.39-4.73Q72.07-4.80 72.93-4.88L72.93-4.88L72.93-4.88Q73.79-4.96 74.67-5.04L74.67-5.04L74.67-5.04Q74.75-5.04 74.98-5.05L74.98-5.05L74.98-5.05Q75.21-5.06 75.46-5.07L75.46-5.07L75.46-5.07Q75.70-5.08 75.93-5.09L75.93-5.09L75.93-5.09Q76.15-5.10 76.25-5.10L76.25-5.10L76.25-5.10Q76.25-4.84 76.14-4.63L76.14-4.63L76.14-4.63Q76.04-4.41 75.80-4.30L75.80-4.30L75.80-4.30Q75.33-4.24 74.63-4.17L74.63-4.17L74.63-4.17Q73.93-4.10 73.18-4.02L73.18-4.02L73.18-4.02Q72.44-3.95 71.74-3.87L71.74-3.87L71.74-3.87Q71.04-3.79 70.57-3.75L70.57-3.75L70.57-3.75Q70.53-3.75 70.38-3.74L70.38-3.74L70.38-3.74Q70.23-3.73 70.16-3.73L70.16-3.73L70.16-3.73Q69.90-3.73 69.73-3.77L69.73-3.77L69.73-3.77Q69.55-3.81 69.43-4.12L69.43-4.12Z" fill="#ccc"></path></g></g><style>text {
  font-size: 64px;
  font-family: Arial Black;
  dominant-baseline: central;
  text-anchor: middle;
}</style></svg>